<?xml version="1.0" encoding="utf-8" standalone="no"?>
<!DOCTYPE svg PUBLIC "-//W3C//DTD SVG 1.1//EN"
  "http://www.w3.org/Graphics/SVG/1.1/DTD/svg11.dtd">
<svg xmlns:xlink="http://www.w3.org/1999/xlink" width="756pt" height="756pt" viewBox="0 0 756 756" xmlns="http://www.w3.org/2000/svg" version="1.1">
 <metadata>
  <rdf:RDF xmlns:dc="http://purl.org/dc/elements/1.1/" xmlns:cc="http://creativecommons.org/ns#" xmlns:rdf="http://www.w3.org/1999/02/22-rdf-syntax-ns#">
   <cc:Work>
    <dc:type rdf:resource="http://purl.org/dc/dcmitype/StillImage"/>
    <dc:date>2024-03-13T15:39:16.414460</dc:date>
    <dc:format>image/svg+xml</dc:format>
    <dc:creator>
     <cc:Agent>
      <dc:title>Matplotlib v3.8.3, https://matplotlib.org/</dc:title>
     </cc:Agent>
    </dc:creator>
   </cc:Work>
  </rdf:RDF>
 </metadata>
 <defs>
  <style type="text/css">*{stroke-linejoin: round; stroke-linecap: butt}</style>
 </defs>
 <g id="figure_1">
  <g id="patch_1">
   <path d="M 0 756 
L 756 756 
L 756 0 
L 0 0 
z
" style="fill: #ffffff"/>
  </g>
  <g id="axes_1">
   <g id="LineCollection_1">
    <path d="M 593.572292 238.578097 
L 617.606078 120.855223 
" clip-path="url(#p4b0c2480ef)" style="fill: none; stroke: #000000"/>
    <path d="M 593.572292 238.578097 
L 690.396694 395.511145 
" clip-path="url(#p4b0c2480ef)" style="fill: none; stroke: #000000"/>
    <path d="M 593.572292 238.578097 
L 407.604222 237.23075 
" clip-path="url(#p4b0c2480ef)" style="fill: none; stroke: #ff0000"/>
    <path d="M 617.606078 120.855223 
L 543.855798 65.603306 
" clip-path="url(#p4b0c2480ef)" style="fill: none; stroke: #000000"/>
    <path d="M 407.604222 237.23075 
L 543.855798 65.603306 
" clip-path="url(#p4b0c2480ef)" style="fill: none; stroke: #000000"/>
    <path d="M 407.604222 237.23075 
L 309.068242 136.95501 
" clip-path="url(#p4b0c2480ef)" style="fill: none; stroke: #000000"/>
    <path d="M 407.604222 237.23075 
L 360.751473 355.075088 
" clip-path="url(#p4b0c2480ef)" style="fill: none; stroke: #ff0000"/>
    <path d="M 690.396694 395.511145 
L 675.195384 583.48393 
" clip-path="url(#p4b0c2480ef)" style="fill: none; stroke: #000000"/>
    <path d="M 309.068242 136.95501 
L 147.734444 431.737369 
" clip-path="url(#p4b0c2480ef)" style="fill: none; stroke: #000000"/>
    <path d="M 360.751473 355.075088 
L 392.074181 595.513704 
" clip-path="url(#p4b0c2480ef)" style="fill: none; stroke: #000000"/>
    <path d="M 360.751473 355.075088 
L 270.637415 451.557857 
" clip-path="url(#p4b0c2480ef)" style="fill: none; stroke: #ff0000"/>
    <path d="M 675.195384 583.48393 
L 614.972546 663.409264 
" clip-path="url(#p4b0c2480ef)" style="fill: none; stroke: #000000"/>
    <path d="M 147.734444 431.737369 
L 65.603306 349.017412 
" clip-path="url(#p4b0c2480ef)" style="fill: none; stroke: #000000"/>
    <path d="M 147.734444 431.737369 
L 78.430298 546.997656 
" clip-path="url(#p4b0c2480ef)" style="fill: none; stroke: #000000"/>
    <path d="M 147.734444 431.737369 
L 270.637415 451.557857 
" clip-path="url(#p4b0c2480ef)" style="fill: none; stroke: #ff0000"/>
    <path d="M 270.637415 451.557857 
L 392.074181 595.513704 
" clip-path="url(#p4b0c2480ef)" style="fill: none; stroke: #000000"/>
    <path d="M 392.074181 595.513704 
L 525.992397 690.396694 
" clip-path="url(#p4b0c2480ef)" style="fill: none; stroke: #000000"/>
    <path d="M 614.972546 663.409264 
L 525.992397 690.396694 
" clip-path="url(#p4b0c2480ef)" style="fill: none; stroke: #000000"/>
   </g>
   <g id="text_1">
    <g id="patch_2">
     <path d="M 613.27872 189.079009 
L 616.333172 174.117618 
Q 617.053278 170.590375 613.526035 169.870268 
L 602.147 167.547174 
Q 598.619757 166.827068 597.89965 170.354311 
L 594.845198 185.315702 
Q 594.125092 188.842946 597.652335 189.563052 
L 609.03137 191.886146 
Q 612.558613 192.606253 613.27872 189.079009 
z
" clip-path="url(#p4b0c2480ef)" style="fill: #ffffff; stroke: #ffffff; stroke-linejoin: miter"/>
    </g>
    <g clip-path="url(#p4b0c2480ef)">
     <!-- 75 -->
     <g transform="translate(607.306288 187.859704) rotate(-78.46131) scale(0.12 -0.12)">
      <defs>
       <path id="DejaVuSans-37" d="M 525 4666 
L 3525 4666 
L 3525 4397 
L 1831 0 
L 1172 0 
L 2766 4134 
L 525 4134 
L 525 4666 
z
" transform="scale(0.015625)"/>
       <path id="DejaVuSans-35" d="M 691 4666 
L 3169 4666 
L 3169 4134 
L 1269 4134 
L 1269 2991 
Q 1406 3038 1543 3061 
Q 1681 3084 1819 3084 
Q 2600 3084 3056 2656 
Q 3513 2228 3513 1497 
Q 3513 744 3044 326 
Q 2575 -91 1722 -91 
Q 1428 -91 1123 -41 
Q 819 9 494 109 
L 494 744 
Q 775 591 1075 516 
Q 1375 441 1709 441 
Q 2250 441 2565 725 
Q 2881 1009 2881 1497 
Q 2881 1984 2565 2268 
Q 2250 2553 1709 2553 
Q 1456 2553 1204 2497 
Q 953 2441 691 2322 
L 691 4666 
z
" transform="scale(0.015625)"/>
      </defs>
      <use xlink:href="#DejaVuSans-37"/>
      <use xlink:href="#DejaVuSans-35" x="63.623047"/>
     </g>
    </g>
   </g>
   <g id="text_2">
    <g id="patch_3">
     <path d="M 627.965259 312.237321 
L 639.992246 331.730669 
Q 641.882539 334.794456 644.946326 332.904164 
L 654.830232 326.806001 
Q 657.89402 324.915708 656.003727 321.851921 
L 643.97674 302.358573 
Q 642.086447 299.294785 639.02266 301.185078 
L 629.138754 307.283241 
Q 626.074966 309.173534 627.965259 312.237321 
z
" clip-path="url(#p4b0c2480ef)" style="fill: #ffffff; stroke: #ffffff; stroke-linejoin: miter"/>
    </g>
    <g clip-path="url(#p4b0c2480ef)">
     <!-- 118 -->
     <g transform="translate(633.152953 309.036622) rotate(-301.673716) scale(0.12 -0.12)">
      <defs>
       <path id="DejaVuSans-31" d="M 794 531 
L 1825 531 
L 1825 4091 
L 703 3866 
L 703 4441 
L 1819 4666 
L 2450 4666 
L 2450 531 
L 3481 531 
L 3481 0 
L 794 0 
L 794 531 
z
" transform="scale(0.015625)"/>
       <path id="DejaVuSans-38" d="M 2034 2216 
Q 1584 2216 1326 1975 
Q 1069 1734 1069 1313 
Q 1069 891 1326 650 
Q 1584 409 2034 409 
Q 2484 409 2743 651 
Q 3003 894 3003 1313 
Q 3003 1734 2745 1975 
Q 2488 2216 2034 2216 
z
M 1403 2484 
Q 997 2584 770 2862 
Q 544 3141 544 3541 
Q 544 4100 942 4425 
Q 1341 4750 2034 4750 
Q 2731 4750 3128 4425 
Q 3525 4100 3525 3541 
Q 3525 3141 3298 2862 
Q 3072 2584 2669 2484 
Q 3125 2378 3379 2068 
Q 3634 1759 3634 1313 
Q 3634 634 3220 271 
Q 2806 -91 2034 -91 
Q 1263 -91 848 271 
Q 434 634 434 1313 
Q 434 1759 690 2068 
Q 947 2378 1403 2484 
z
M 1172 3481 
Q 1172 3119 1398 2916 
Q 1625 2713 2034 2713 
Q 2441 2713 2670 2916 
Q 2900 3119 2900 3481 
Q 2900 3844 2670 4047 
Q 2441 4250 2034 4250 
Q 1625 4250 1398 4047 
Q 1172 3844 1172 3481 
z
" transform="scale(0.015625)"/>
      </defs>
      <use xlink:href="#DejaVuSans-31"/>
      <use xlink:href="#DejaVuSans-31" x="63.623047"/>
      <use xlink:href="#DejaVuSans-38" x="127.246094"/>
     </g>
    </g>
   </g>
   <g id="text_3">
    <g id="patch_4">
     <path d="M 489.067906 247.22808 
L 511.972305 247.394023 
Q 515.57221 247.420105 515.598292 243.820199 
L 515.682432 232.206754 
Q 515.708513 228.606849 512.108608 228.580767 
L 489.204209 228.414824 
Q 485.604303 228.388742 485.578222 231.988648 
L 485.494082 243.602093 
Q 485.468 247.201998 489.067906 247.22808 
z
" clip-path="url(#p4b0c2480ef)" style="fill: #ffffff; stroke: #ffffff; stroke-linejoin: miter"/>
    </g>
    <g clip-path="url(#p4b0c2480ef)">
     <!-- 140 -->
     <g transform="translate(489.112068 241.132615) rotate(-359.584897) scale(0.12 -0.12)">
      <defs>
       <path id="DejaVuSans-34" d="M 2419 4116 
L 825 1625 
L 2419 1625 
L 2419 4116 
z
M 2253 4666 
L 3047 4666 
L 3047 1625 
L 3713 1625 
L 3713 1100 
L 3047 1100 
L 3047 0 
L 2419 0 
L 2419 1100 
L 313 1100 
L 313 1709 
L 2253 4666 
z
" transform="scale(0.015625)"/>
       <path id="DejaVuSans-30" d="M 2034 4250 
Q 1547 4250 1301 3770 
Q 1056 3291 1056 2328 
Q 1056 1369 1301 889 
Q 1547 409 2034 409 
Q 2525 409 2770 889 
Q 3016 1369 3016 2328 
Q 3016 3291 2770 3770 
Q 2525 4250 2034 4250 
z
M 2034 4750 
Q 2819 4750 3233 4129 
Q 3647 3509 3647 2328 
Q 3647 1150 3233 529 
Q 2819 -91 2034 -91 
Q 1250 -91 836 529 
Q 422 1150 422 2328 
Q 422 3509 836 4129 
Q 1250 4750 2034 4750 
z
" transform="scale(0.015625)"/>
      </defs>
      <use xlink:href="#DejaVuSans-31"/>
      <use xlink:href="#DejaVuSans-34" x="63.623047"/>
      <use xlink:href="#DejaVuSans-30" x="127.246094"/>
     </g>
    </g>
   </g>
   <g id="text_4">
    <g id="patch_5">
     <path d="M 568.980369 96.179966 
L 581.201203 105.335518 
Q 584.082342 107.493998 586.240822 104.612858 
L 593.204167 95.318182 
Q 595.362647 92.437042 592.481508 90.278563 
L 580.260674 81.123011 
Q 577.379534 78.964531 575.221055 81.845671 
L 568.257709 91.140347 
Q 566.099229 94.021487 568.980369 96.179966 
z
" clip-path="url(#p4b0c2480ef)" style="fill: #ffffff; stroke: #ffffff; stroke-linejoin: miter"/>
    </g>
    <g clip-path="url(#p4b0c2480ef)">
     <!-- 71 -->
     <g transform="translate(572.63517 91.301537) rotate(-323.160341) scale(0.12 -0.12)">
      <use xlink:href="#DejaVuSans-37"/>
      <use xlink:href="#DejaVuSans-31" x="63.623047"/>
     </g>
    </g>
   </g>
   <g id="text_5">
    <g id="patch_6">
     <path d="M 475.976692 166.235537 
L 490.218286 148.296306 
Q 492.456651 145.47678 489.637125 143.238416 
L 480.541219 136.017358 
Q 477.721693 133.778994 475.483329 136.598519 
L 461.241734 154.53775 
Q 459.003369 157.357276 461.822895 159.59564 
L 470.918802 166.816698 
Q 473.738327 169.055062 475.976692 166.235537 
z
" clip-path="url(#p4b0c2480ef)" style="fill: #ffffff; stroke: #ffffff; stroke-linejoin: miter"/>
    </g>
    <g clip-path="url(#p4b0c2480ef)">
     <!-- 151 -->
     <g transform="translate(471.202589 162.445472) rotate(-51.554646) scale(0.12 -0.12)">
      <use xlink:href="#DejaVuSans-31"/>
      <use xlink:href="#DejaVuSans-35" x="63.623047"/>
      <use xlink:href="#DejaVuSans-31" x="127.246094"/>
     </g>
    </g>
   </g>
   <g id="text_6">
    <g id="patch_7">
     <path d="M 346.275305 188.24029 
L 356.977928 199.13188 
Q 359.50114 201.699642 362.068902 199.176431 
L 370.35261 191.036444 
Q 372.920372 188.513232 370.39716 185.94547 
L 359.694536 175.053879 
Q 357.171324 172.486117 354.603562 175.009329 
L 346.319855 183.149316 
Q 343.752093 185.672528 346.275305 188.24029 
z
" clip-path="url(#p4b0c2480ef)" style="fill: #ffffff; stroke: #ffffff; stroke-linejoin: miter"/>
    </g>
    <g clip-path="url(#p4b0c2480ef)">
     <!-- 99 -->
     <g transform="translate(350.623114 183.967914) rotate(-314.498629) scale(0.12 -0.12)">
      <defs>
       <path id="DejaVuSans-39" d="M 703 97 
L 703 672 
Q 941 559 1184 500 
Q 1428 441 1663 441 
Q 2288 441 2617 861 
Q 2947 1281 2994 2138 
Q 2813 1869 2534 1725 
Q 2256 1581 1919 1581 
Q 1219 1581 811 2004 
Q 403 2428 403 3163 
Q 403 3881 828 4315 
Q 1253 4750 1959 4750 
Q 2769 4750 3195 4129 
Q 3622 3509 3622 2328 
Q 3622 1225 3098 567 
Q 2575 -91 1691 -91 
Q 1453 -91 1209 -44 
Q 966 3 703 97 
z
M 1959 2075 
Q 2384 2075 2632 2365 
Q 2881 2656 2881 3163 
Q 2881 3666 2632 3958 
Q 2384 4250 1959 4250 
Q 1534 4250 1286 3958 
Q 1038 3666 1038 3163 
Q 1038 2656 1286 2365 
Q 1534 2075 1959 2075 
z
" transform="scale(0.015625)"/>
      </defs>
      <use xlink:href="#DejaVuSans-39"/>
      <use xlink:href="#DejaVuSans-39" x="63.623047"/>
     </g>
    </g>
   </g>
   <g id="text_7">
    <g id="patch_8">
     <path d="M 390.098412 306.723134 
L 395.739953 292.533493 
Q 397.069982 289.188194 393.724684 287.858165 
L 382.932611 283.567435 
Q 379.587313 282.237405 378.257283 285.582704 
L 372.615742 299.772345 
Q 371.285713 303.117643 374.631011 304.447673 
L 385.423084 308.738403 
Q 388.768382 310.068432 390.098412 306.723134 
z
" clip-path="url(#p4b0c2480ef)" style="fill: #ffffff; stroke: #ffffff; stroke-linejoin: miter"/>
    </g>
    <g clip-path="url(#p4b0c2480ef)">
     <!-- 80 -->
     <g transform="translate(384.434055 304.471089) rotate(-68.318138) scale(0.12 -0.12)">
      <use xlink:href="#DejaVuSans-38"/>
      <use xlink:href="#DejaVuSans-30" x="63.623047"/>
     </g>
    </g>
   </g>
   <g id="text_8">
    <g id="patch_9">
     <path d="M 691.249157 501.671027 
L 693.095451 478.84056 
Q 693.385635 475.252274 689.797349 474.962091 
L 678.22139 474.025946 
Q 674.633105 473.735762 674.342921 477.324048 
L 672.496627 500.154515 
Q 672.206443 503.7428 675.794729 504.032984 
L 687.370688 504.969129 
Q 690.958973 505.259313 691.249157 501.671027 
z
" clip-path="url(#p4b0c2480ef)" style="fill: #ffffff; stroke: #ffffff; stroke-linejoin: miter"/>
    </g>
    <g clip-path="url(#p4b0c2480ef)">
     <!-- 111 -->
     <g transform="translate(685.173367 501.179679) rotate(-85.376567) scale(0.12 -0.12)">
      <use xlink:href="#DejaVuSans-31"/>
      <use xlink:href="#DejaVuSans-31" x="63.623047"/>
      <use xlink:href="#DejaVuSans-31" x="127.246094"/>
     </g>
    </g>
   </g>
   <g id="text_9">
    <g id="patch_10">
     <path d="M 231.154872 298.908714 
L 242.151516 278.816107 
Q 243.879868 275.658134 240.721895 273.929781 
L 230.534141 268.354044 
Q 227.376167 266.625691 225.647814 269.783664 
L 214.651171 289.876271 
Q 212.922818 293.034245 216.080792 294.762598 
L 226.268546 300.338335 
Q 229.426519 302.066688 231.154872 298.908714 
z
" clip-path="url(#p4b0c2480ef)" style="fill: #ffffff; stroke: #ffffff; stroke-linejoin: miter"/>
    </g>
    <g clip-path="url(#p4b0c2480ef)">
     <!-- 211 -->
     <g transform="translate(225.807699 295.982217) rotate(-61.3082) scale(0.12 -0.12)">
      <defs>
       <path id="DejaVuSans-32" d="M 1228 531 
L 3431 531 
L 3431 0 
L 469 0 
L 469 531 
Q 828 903 1448 1529 
Q 2069 2156 2228 2338 
Q 2531 2678 2651 2914 
Q 2772 3150 2772 3378 
Q 2772 3750 2511 3984 
Q 2250 4219 1831 4219 
Q 1534 4219 1204 4116 
Q 875 4013 500 3803 
L 500 4441 
Q 881 4594 1212 4672 
Q 1544 4750 1819 4750 
Q 2544 4750 2975 4387 
Q 3406 4025 3406 3419 
Q 3406 3131 3298 2873 
Q 3191 2616 2906 2266 
Q 2828 2175 2409 1742 
Q 1991 1309 1228 531 
z
" transform="scale(0.015625)"/>
      </defs>
      <use xlink:href="#DejaVuSans-32"/>
      <use xlink:href="#DejaVuSans-31" x="63.623047"/>
      <use xlink:href="#DejaVuSans-31" x="127.246094"/>
     </g>
    </g>
   </g>
   <g id="text_10">
    <g id="patch_11">
     <path d="M 365.60532 465.153052 
L 368.564226 487.86613 
Q 369.029279 491.435966 372.599115 490.970912 
L 384.115553 489.470629 
Q 387.685388 489.005575 387.220334 485.435739 
L 384.261429 462.722661 
Q 383.796375 459.152826 380.22654 459.61788 
L 368.710102 461.118163 
Q 365.140266 461.583217 365.60532 465.153052 
z
" clip-path="url(#p4b0c2480ef)" style="fill: #ffffff; stroke: #ffffff; stroke-linejoin: miter"/>
    </g>
    <g clip-path="url(#p4b0c2480ef)">
     <!-- 146 -->
     <g transform="translate(371.64987 464.36561) rotate(-277.422305) scale(0.12 -0.12)">
      <defs>
       <path id="DejaVuSans-36" d="M 2113 2584 
Q 1688 2584 1439 2293 
Q 1191 2003 1191 1497 
Q 1191 994 1439 701 
Q 1688 409 2113 409 
Q 2538 409 2786 701 
Q 3034 994 3034 1497 
Q 3034 2003 2786 2293 
Q 2538 2584 2113 2584 
z
M 3366 4563 
L 3366 3988 
Q 3128 4100 2886 4159 
Q 2644 4219 2406 4219 
Q 1781 4219 1451 3797 
Q 1122 3375 1075 2522 
Q 1259 2794 1537 2939 
Q 1816 3084 2150 3084 
Q 2853 3084 3261 2657 
Q 3669 2231 3669 1497 
Q 3669 778 3244 343 
Q 2819 -91 2113 -91 
Q 1303 -91 875 529 
Q 447 1150 447 2328 
Q 447 3434 972 4092 
Q 1497 4750 2381 4750 
Q 2619 4750 2861 4703 
Q 3103 4656 3366 4563 
z
" transform="scale(0.015625)"/>
      </defs>
      <use xlink:href="#DejaVuSans-31"/>
      <use xlink:href="#DejaVuSans-34" x="63.623047"/>
      <use xlink:href="#DejaVuSans-36" x="127.246094"/>
     </g>
    </g>
   </g>
   <g id="text_11">
    <g id="patch_12">
     <path d="M 317.357672 415.317147 
L 327.780594 404.157596 
Q 330.237865 401.526661 327.60693 399.06939 
L 319.119422 391.142133 
Q 316.488487 388.684862 314.031216 391.315798 
L 303.608293 402.475349 
Q 301.151023 405.106284 303.781958 407.563555 
L 312.269466 415.490812 
Q 314.900401 417.948083 317.357672 415.317147 
z
" clip-path="url(#p4b0c2480ef)" style="fill: #ffffff; stroke: #ffffff; stroke-linejoin: miter"/>
    </g>
    <g clip-path="url(#p4b0c2480ef)">
     <!-- 97 -->
     <g transform="translate(312.902895 411.156425) rotate(-46.954796) scale(0.12 -0.12)">
      <use xlink:href="#DejaVuSans-39"/>
      <use xlink:href="#DejaVuSans-37" x="63.623047"/>
     </g>
    </g>
   </g>
   <g id="text_12">
    <g id="patch_13">
     <path d="M 648.002262 635.205256 
L 657.191469 623.009709 
Q 659.357883 620.134531 656.482705 617.968117 
L 647.207261 610.979174 
Q 644.332083 608.81276 642.165668 611.687938 
L 632.976461 623.883485 
Q 630.810047 626.758663 633.685225 628.925078 
L 642.96067 635.91402 
Q 645.835848 638.080435 648.002262 635.205256 
z
" clip-path="url(#p4b0c2480ef)" style="fill: #ffffff; stroke: #ffffff; stroke-linejoin: miter"/>
    </g>
    <g clip-path="url(#p4b0c2480ef)">
     <!-- 70 -->
     <g transform="translate(643.133926 631.537021) rotate(-53.002388) scale(0.12 -0.12)">
      <use xlink:href="#DejaVuSans-37"/>
      <use xlink:href="#DejaVuSans-30" x="63.623047"/>
     </g>
    </g>
   </g>
   <g id="text_13">
    <g id="patch_14">
     <path d="M 94.614051 391.587246 
L 105.372936 402.423264 
Q 107.909412 404.977924 110.464073 402.441448 
L 118.705514 394.258672 
Q 121.260174 391.722196 118.723699 389.167535 
L 107.964813 378.331517 
Q 105.428338 375.776856 102.873677 378.313332 
L 94.632236 386.496109 
Q 92.077575 389.032585 94.614051 391.587246 
z
" clip-path="url(#p4b0c2480ef)" style="fill: #ffffff; stroke: #ffffff; stroke-linejoin: miter"/>
    </g>
    <g clip-path="url(#p4b0c2480ef)">
     <!-- 85 -->
     <g transform="translate(98.939677 387.292411) rotate(-314.795351) scale(0.12 -0.12)">
      <use xlink:href="#DejaVuSans-38"/>
      <use xlink:href="#DejaVuSans-35" x="63.623047"/>
     </g>
    </g>
   </g>
   <g id="text_14">
    <g id="patch_15">
     <path d="M 117.20978 500.758167 
L 125.07848 487.671668 
Q 126.933576 484.586442 123.848351 482.731346 
L 113.895284 476.746728 
Q 110.810058 474.891632 108.954962 477.976857 
L 101.086262 491.063356 
Q 99.231165 494.148582 102.316391 496.003679 
L 112.269458 501.988297 
Q 115.354684 503.843393 117.20978 500.758167 
z
" clip-path="url(#p4b0c2480ef)" style="fill: #ffffff; stroke: #ffffff; stroke-linejoin: miter"/>
    </g>
    <g clip-path="url(#p4b0c2480ef)">
     <!-- 90 -->
     <g transform="translate(111.985786 497.617064) rotate(-58.982188) scale(0.12 -0.12)">
      <use xlink:href="#DejaVuSans-39"/>
      <use xlink:href="#DejaVuSans-30" x="63.623047"/>
     </g>
    </g>
   </g>
   <g id="text_15">
    <g id="patch_16">
     <path d="M 196.381823 449.111118 
L 218.994655 452.757876 
Q 222.548735 453.331041 223.121899 449.776961 
L 224.970951 438.311352 
Q 225.544115 434.757272 221.990036 434.184108 
L 199.377203 430.53735 
Q 195.823124 429.964185 195.249959 433.518265 
L 193.400908 444.983874 
Q 192.827743 448.537954 196.381823 449.111118 
z
" clip-path="url(#p4b0c2480ef)" style="fill: #ffffff; stroke: #ffffff; stroke-linejoin: miter"/>
    </g>
    <g clip-path="url(#p4b0c2480ef)">
     <!-- 101 -->
     <g transform="translate(197.352321 443.093247) rotate(-350.838821) scale(0.12 -0.12)">
      <use xlink:href="#DejaVuSans-31"/>
      <use xlink:href="#DejaVuSans-30" x="63.623047"/>
      <use xlink:href="#DejaVuSans-31" x="127.246094"/>
     </g>
    </g>
   </g>
   <g id="text_16">
    <g id="patch_17">
     <path d="M 316.781102 520.847416 
L 331.550025 538.35507 
Q 333.871271 541.106764 336.622965 538.785518 
L 345.500045 531.297084 
Q 348.251739 528.975839 345.930493 526.224145 
L 331.16157 508.716491 
Q 328.840325 505.964797 326.088631 508.286043 
L 317.211551 515.774477 
Q 314.459857 518.095722 316.781102 520.847416 
z
" clip-path="url(#p4b0c2480ef)" style="fill: #ffffff; stroke: #ffffff; stroke-linejoin: miter"/>
    </g>
    <g clip-path="url(#p4b0c2480ef)">
     <!-- 138 -->
     <g transform="translate(321.440351 516.917016) rotate(-310.149959) scale(0.12 -0.12)">
      <defs>
       <path id="DejaVuSans-33" d="M 2597 2516 
Q 3050 2419 3304 2112 
Q 3559 1806 3559 1356 
Q 3559 666 3084 287 
Q 2609 -91 1734 -91 
Q 1441 -91 1130 -33 
Q 819 25 488 141 
L 488 750 
Q 750 597 1062 519 
Q 1375 441 1716 441 
Q 2309 441 2620 675 
Q 2931 909 2931 1356 
Q 2931 1769 2642 2001 
Q 2353 2234 1838 2234 
L 1294 2234 
L 1294 2753 
L 1863 2753 
Q 2328 2753 2575 2939 
Q 2822 3125 2822 3475 
Q 2822 3834 2567 4026 
Q 2313 4219 1838 4219 
Q 1578 4219 1281 4162 
Q 984 4106 628 3988 
L 628 4550 
Q 988 4650 1302 4700 
Q 1616 4750 1894 4750 
Q 2613 4750 3031 4423 
Q 3450 4097 3450 3541 
Q 3450 3153 3228 2886 
Q 3006 2619 2597 2516 
z
" transform="scale(0.015625)"/>
      </defs>
      <use xlink:href="#DejaVuSans-31"/>
      <use xlink:href="#DejaVuSans-33" x="63.623047"/>
      <use xlink:href="#DejaVuSans-38" x="127.246094"/>
     </g>
    </g>
   </g>
   <g id="text_17">
    <g id="patch_18">
     <path d="M 444.250305 644.009913 
L 462.939749 657.251654 
Q 465.877186 659.332871 467.958402 656.395434 
L 474.672494 646.919139 
Q 476.753711 643.981702 473.816274 641.900485 
L 455.12683 628.658744 
Q 452.189392 626.577527 450.108176 629.514964 
L 443.394084 638.991259 
Q 441.312867 641.928696 444.250305 644.009913 
z
" clip-path="url(#p4b0c2480ef)" style="fill: #ffffff; stroke: #ffffff; stroke-linejoin: miter"/>
    </g>
    <g clip-path="url(#p4b0c2480ef)">
     <!-- 120 -->
     <g transform="translate(447.774281 639.036159) rotate(-324.681877) scale(0.12 -0.12)">
      <use xlink:href="#DejaVuSans-31"/>
      <use xlink:href="#DejaVuSans-32" x="63.623047"/>
      <use xlink:href="#DejaVuSans-30" x="127.246094"/>
     </g>
    </g>
   </g>
   <g id="text_18">
    <g id="patch_19">
     <path d="M 565.906396 688.120914 
L 580.519075 683.688929 
Q 583.964108 682.64406 582.919239 679.199028 
L 579.548449 668.085209 
Q 578.50358 664.640176 575.058548 665.685045 
L 560.445868 670.11703 
Q 557.000836 671.161899 558.045704 674.606931 
L 561.416494 685.72075 
Q 562.461363 689.165782 565.906396 688.120914 
z
" clip-path="url(#p4b0c2480ef)" style="fill: #ffffff; stroke: #ffffff; stroke-linejoin: miter"/>
    </g>
    <g clip-path="url(#p4b0c2480ef)">
     <!-- 75 -->
     <g transform="translate(564.137193 682.287684) rotate(-16.872403) scale(0.12 -0.12)">
      <use xlink:href="#DejaVuSans-37"/>
      <use xlink:href="#DejaVuSans-35" x="63.623047"/>
     </g>
    </g>
   </g>
   <g id="PathCollection_1">
    <defs>
     <path id="ma82767c4ce" d="M 0 5 
C 1.326016 5 2.597899 4.473168 3.535534 3.535534 
C 4.473168 2.597899 5 1.326016 5 0 
C 5 -1.326016 4.473168 -2.597899 3.535534 -3.535534 
C 2.597899 -4.473168 1.326016 -5 0 -5 
C -1.326016 -5 -2.597899 -4.473168 -3.535534 -3.535534 
C -4.473168 -2.597899 -5 -1.326016 -5 0 
C -5 1.326016 -4.473168 2.597899 -3.535534 3.535534 
C -2.597899 4.473168 -1.326016 5 0 5 
z
" style="stroke: #87ceeb"/>
    </defs>
    <g clip-path="url(#p4b0c2480ef)">
     <use xlink:href="#ma82767c4ce" x="593.572292" y="238.578097" style="fill: #87ceeb; stroke: #87ceeb"/>
     <use xlink:href="#ma82767c4ce" x="617.606078" y="120.855223" style="fill: #87ceeb; stroke: #87ceeb"/>
     <use xlink:href="#ma82767c4ce" x="407.604222" y="237.23075" style="fill: #87ceeb; stroke: #87ceeb"/>
     <use xlink:href="#ma82767c4ce" x="690.396694" y="395.511145" style="fill: #87ceeb; stroke: #87ceeb"/>
     <use xlink:href="#ma82767c4ce" x="543.855798" y="65.603306" style="fill: #87ceeb; stroke: #87ceeb"/>
     <use xlink:href="#ma82767c4ce" x="309.068242" y="136.95501" style="fill: #87ceeb; stroke: #87ceeb"/>
     <use xlink:href="#ma82767c4ce" x="360.751473" y="355.075088" style="fill: #87ceeb; stroke: #87ceeb"/>
     <use xlink:href="#ma82767c4ce" x="675.195384" y="583.48393" style="fill: #87ceeb; stroke: #87ceeb"/>
     <use xlink:href="#ma82767c4ce" x="147.734444" y="431.737369" style="fill: #87ceeb; stroke: #87ceeb"/>
     <use xlink:href="#ma82767c4ce" x="270.637415" y="451.557857" style="fill: #87ceeb; stroke: #87ceeb"/>
     <use xlink:href="#ma82767c4ce" x="392.074181" y="595.513704" style="fill: #87ceeb; stroke: #87ceeb"/>
     <use xlink:href="#ma82767c4ce" x="614.972546" y="663.409264" style="fill: #87ceeb; stroke: #87ceeb"/>
     <use xlink:href="#ma82767c4ce" x="525.992397" y="690.396694" style="fill: #87ceeb; stroke: #87ceeb"/>
     <use xlink:href="#ma82767c4ce" x="65.603306" y="349.017412" style="fill: #87ceeb; stroke: #87ceeb"/>
     <use xlink:href="#ma82767c4ce" x="78.430298" y="546.997656" style="fill: #87ceeb; stroke: #87ceeb"/>
    </g>
   </g>
   <g id="text_19">
    <g clip-path="url(#p4b0c2480ef)">
     <!-- Arad -->
     <g transform="translate(581.858229 241.337472) scale(0.1 -0.1)">
      <defs>
       <path id="DejaVuSans-41" d="M 2188 4044 
L 1331 1722 
L 3047 1722 
L 2188 4044 
z
M 1831 4666 
L 2547 4666 
L 4325 0 
L 3669 0 
L 3244 1197 
L 1141 1197 
L 716 0 
L 50 0 
L 1831 4666 
z
" transform="scale(0.015625)"/>
       <path id="DejaVuSans-72" d="M 2631 2963 
Q 2534 3019 2420 3045 
Q 2306 3072 2169 3072 
Q 1681 3072 1420 2755 
Q 1159 2438 1159 1844 
L 1159 0 
L 581 0 
L 581 3500 
L 1159 3500 
L 1159 2956 
Q 1341 3275 1631 3429 
Q 1922 3584 2338 3584 
Q 2397 3584 2469 3576 
Q 2541 3569 2628 3553 
L 2631 2963 
z
" transform="scale(0.015625)"/>
       <path id="DejaVuSans-61" d="M 2194 1759 
Q 1497 1759 1228 1600 
Q 959 1441 959 1056 
Q 959 750 1161 570 
Q 1363 391 1709 391 
Q 2188 391 2477 730 
Q 2766 1069 2766 1631 
L 2766 1759 
L 2194 1759 
z
M 3341 1997 
L 3341 0 
L 2766 0 
L 2766 531 
Q 2569 213 2275 61 
Q 1981 -91 1556 -91 
Q 1019 -91 701 211 
Q 384 513 384 1019 
Q 384 1609 779 1909 
Q 1175 2209 1959 2209 
L 2766 2209 
L 2766 2266 
Q 2766 2663 2505 2880 
Q 2244 3097 1772 3097 
Q 1472 3097 1187 3025 
Q 903 2953 641 2809 
L 641 3341 
Q 956 3463 1253 3523 
Q 1550 3584 1831 3584 
Q 2591 3584 2966 3190 
Q 3341 2797 3341 1997 
z
" transform="scale(0.015625)"/>
       <path id="DejaVuSans-64" d="M 2906 2969 
L 2906 4863 
L 3481 4863 
L 3481 0 
L 2906 0 
L 2906 525 
Q 2725 213 2448 61 
Q 2172 -91 1784 -91 
Q 1150 -91 751 415 
Q 353 922 353 1747 
Q 353 2572 751 3078 
Q 1150 3584 1784 3584 
Q 2172 3584 2448 3432 
Q 2725 3281 2906 2969 
z
M 947 1747 
Q 947 1113 1208 752 
Q 1469 391 1925 391 
Q 2381 391 2643 752 
Q 2906 1113 2906 1747 
Q 2906 2381 2643 2742 
Q 2381 3103 1925 3103 
Q 1469 3103 1208 2742 
Q 947 2381 947 1747 
z
" transform="scale(0.015625)"/>
      </defs>
      <use xlink:href="#DejaVuSans-41"/>
      <use xlink:href="#DejaVuSans-72" x="68.408203"/>
      <use xlink:href="#DejaVuSans-61" x="109.521484"/>
      <use xlink:href="#DejaVuSans-64" x="170.800781"/>
     </g>
    </g>
   </g>
   <g id="text_20">
    <g clip-path="url(#p4b0c2480ef)">
     <!-- Zerind -->
     <g transform="translate(601.317016 123.614598) scale(0.1 -0.1)">
      <defs>
       <path id="DejaVuSans-5a" d="M 359 4666 
L 4025 4666 
L 4025 4184 
L 1075 531 
L 4097 531 
L 4097 0 
L 288 0 
L 288 481 
L 3238 4134 
L 359 4134 
L 359 4666 
z
" transform="scale(0.015625)"/>
       <path id="DejaVuSans-65" d="M 3597 1894 
L 3597 1613 
L 953 1613 
Q 991 1019 1311 708 
Q 1631 397 2203 397 
Q 2534 397 2845 478 
Q 3156 559 3463 722 
L 3463 178 
Q 3153 47 2828 -22 
Q 2503 -91 2169 -91 
Q 1331 -91 842 396 
Q 353 884 353 1716 
Q 353 2575 817 3079 
Q 1281 3584 2069 3584 
Q 2775 3584 3186 3129 
Q 3597 2675 3597 1894 
z
M 3022 2063 
Q 3016 2534 2758 2815 
Q 2500 3097 2075 3097 
Q 1594 3097 1305 2825 
Q 1016 2553 972 2059 
L 3022 2063 
z
" transform="scale(0.015625)"/>
       <path id="DejaVuSans-69" d="M 603 3500 
L 1178 3500 
L 1178 0 
L 603 0 
L 603 3500 
z
M 603 4863 
L 1178 4863 
L 1178 4134 
L 603 4134 
L 603 4863 
z
" transform="scale(0.015625)"/>
       <path id="DejaVuSans-6e" d="M 3513 2113 
L 3513 0 
L 2938 0 
L 2938 2094 
Q 2938 2591 2744 2837 
Q 2550 3084 2163 3084 
Q 1697 3084 1428 2787 
Q 1159 2491 1159 1978 
L 1159 0 
L 581 0 
L 581 3500 
L 1159 3500 
L 1159 2956 
Q 1366 3272 1645 3428 
Q 1925 3584 2291 3584 
Q 2894 3584 3203 3211 
Q 3513 2838 3513 2113 
z
" transform="scale(0.015625)"/>
      </defs>
      <use xlink:href="#DejaVuSans-5a"/>
      <use xlink:href="#DejaVuSans-65" x="68.505859"/>
      <use xlink:href="#DejaVuSans-72" x="130.029297"/>
      <use xlink:href="#DejaVuSans-69" x="171.142578"/>
      <use xlink:href="#DejaVuSans-6e" x="198.925781"/>
      <use xlink:href="#DejaVuSans-64" x="262.304688"/>
     </g>
    </g>
   </g>
   <g id="text_21">
    <g clip-path="url(#p4b0c2480ef)">
     <!-- Sibiu -->
     <g transform="translate(395.308909 239.990125) scale(0.1 -0.1)">
      <defs>
       <path id="DejaVuSans-53" d="M 3425 4513 
L 3425 3897 
Q 3066 4069 2747 4153 
Q 2428 4238 2131 4238 
Q 1616 4238 1336 4038 
Q 1056 3838 1056 3469 
Q 1056 3159 1242 3001 
Q 1428 2844 1947 2747 
L 2328 2669 
Q 3034 2534 3370 2195 
Q 3706 1856 3706 1288 
Q 3706 609 3251 259 
Q 2797 -91 1919 -91 
Q 1588 -91 1214 -16 
Q 841 59 441 206 
L 441 856 
Q 825 641 1194 531 
Q 1563 422 1919 422 
Q 2459 422 2753 634 
Q 3047 847 3047 1241 
Q 3047 1584 2836 1778 
Q 2625 1972 2144 2069 
L 1759 2144 
Q 1053 2284 737 2584 
Q 422 2884 422 3419 
Q 422 4038 858 4394 
Q 1294 4750 2059 4750 
Q 2388 4750 2728 4690 
Q 3069 4631 3425 4513 
z
" transform="scale(0.015625)"/>
       <path id="DejaVuSans-62" d="M 3116 1747 
Q 3116 2381 2855 2742 
Q 2594 3103 2138 3103 
Q 1681 3103 1420 2742 
Q 1159 2381 1159 1747 
Q 1159 1113 1420 752 
Q 1681 391 2138 391 
Q 2594 391 2855 752 
Q 3116 1113 3116 1747 
z
M 1159 2969 
Q 1341 3281 1617 3432 
Q 1894 3584 2278 3584 
Q 2916 3584 3314 3078 
Q 3713 2572 3713 1747 
Q 3713 922 3314 415 
Q 2916 -91 2278 -91 
Q 1894 -91 1617 61 
Q 1341 213 1159 525 
L 1159 0 
L 581 0 
L 581 4863 
L 1159 4863 
L 1159 2969 
z
" transform="scale(0.015625)"/>
       <path id="DejaVuSans-75" d="M 544 1381 
L 544 3500 
L 1119 3500 
L 1119 1403 
Q 1119 906 1312 657 
Q 1506 409 1894 409 
Q 2359 409 2629 706 
Q 2900 1003 2900 1516 
L 2900 3500 
L 3475 3500 
L 3475 0 
L 2900 0 
L 2900 538 
Q 2691 219 2414 64 
Q 2138 -91 1772 -91 
Q 1169 -91 856 284 
Q 544 659 544 1381 
z
M 1991 3584 
L 1991 3584 
z
" transform="scale(0.015625)"/>
      </defs>
      <use xlink:href="#DejaVuSans-53"/>
      <use xlink:href="#DejaVuSans-69" x="63.476562"/>
      <use xlink:href="#DejaVuSans-62" x="91.259766"/>
      <use xlink:href="#DejaVuSans-69" x="154.736328"/>
      <use xlink:href="#DejaVuSans-75" x="182.519531"/>
     </g>
    </g>
   </g>
   <g id="text_22">
    <g clip-path="url(#p4b0c2480ef)">
     <!-- Timisoara -->
     <g transform="translate(666.002944 398.27052) scale(0.1 -0.1)">
      <defs>
       <path id="DejaVuSans-54" d="M -19 4666 
L 3928 4666 
L 3928 4134 
L 2272 4134 
L 2272 0 
L 1638 0 
L 1638 4134 
L -19 4134 
L -19 4666 
z
" transform="scale(0.015625)"/>
       <path id="DejaVuSans-6d" d="M 3328 2828 
Q 3544 3216 3844 3400 
Q 4144 3584 4550 3584 
Q 5097 3584 5394 3201 
Q 5691 2819 5691 2113 
L 5691 0 
L 5113 0 
L 5113 2094 
Q 5113 2597 4934 2840 
Q 4756 3084 4391 3084 
Q 3944 3084 3684 2787 
Q 3425 2491 3425 1978 
L 3425 0 
L 2847 0 
L 2847 2094 
Q 2847 2600 2669 2842 
Q 2491 3084 2119 3084 
Q 1678 3084 1418 2786 
Q 1159 2488 1159 1978 
L 1159 0 
L 581 0 
L 581 3500 
L 1159 3500 
L 1159 2956 
Q 1356 3278 1631 3431 
Q 1906 3584 2284 3584 
Q 2666 3584 2933 3390 
Q 3200 3197 3328 2828 
z
" transform="scale(0.015625)"/>
       <path id="DejaVuSans-73" d="M 2834 3397 
L 2834 2853 
Q 2591 2978 2328 3040 
Q 2066 3103 1784 3103 
Q 1356 3103 1142 2972 
Q 928 2841 928 2578 
Q 928 2378 1081 2264 
Q 1234 2150 1697 2047 
L 1894 2003 
Q 2506 1872 2764 1633 
Q 3022 1394 3022 966 
Q 3022 478 2636 193 
Q 2250 -91 1575 -91 
Q 1294 -91 989 -36 
Q 684 19 347 128 
L 347 722 
Q 666 556 975 473 
Q 1284 391 1588 391 
Q 1994 391 2212 530 
Q 2431 669 2431 922 
Q 2431 1156 2273 1281 
Q 2116 1406 1581 1522 
L 1381 1569 
Q 847 1681 609 1914 
Q 372 2147 372 2553 
Q 372 3047 722 3315 
Q 1072 3584 1716 3584 
Q 2034 3584 2315 3537 
Q 2597 3491 2834 3397 
z
" transform="scale(0.015625)"/>
       <path id="DejaVuSans-6f" d="M 1959 3097 
Q 1497 3097 1228 2736 
Q 959 2375 959 1747 
Q 959 1119 1226 758 
Q 1494 397 1959 397 
Q 2419 397 2687 759 
Q 2956 1122 2956 1747 
Q 2956 2369 2687 2733 
Q 2419 3097 1959 3097 
z
M 1959 3584 
Q 2709 3584 3137 3096 
Q 3566 2609 3566 1747 
Q 3566 888 3137 398 
Q 2709 -91 1959 -91 
Q 1206 -91 779 398 
Q 353 888 353 1747 
Q 353 2609 779 3096 
Q 1206 3584 1959 3584 
z
" transform="scale(0.015625)"/>
      </defs>
      <use xlink:href="#DejaVuSans-54"/>
      <use xlink:href="#DejaVuSans-69" x="57.958984"/>
      <use xlink:href="#DejaVuSans-6d" x="85.742188"/>
      <use xlink:href="#DejaVuSans-69" x="183.154297"/>
      <use xlink:href="#DejaVuSans-73" x="210.9375"/>
      <use xlink:href="#DejaVuSans-6f" x="263.037109"/>
      <use xlink:href="#DejaVuSans-61" x="324.21875"/>
      <use xlink:href="#DejaVuSans-72" x="385.498047"/>
      <use xlink:href="#DejaVuSans-61" x="426.611328"/>
     </g>
    </g>
   </g>
   <g id="text_23">
    <g clip-path="url(#p4b0c2480ef)">
     <!-- Oradea -->
     <g transform="translate(525.485486 68.362681) scale(0.1 -0.1)">
      <defs>
       <path id="DejaVuSans-4f" d="M 2522 4238 
Q 1834 4238 1429 3725 
Q 1025 3213 1025 2328 
Q 1025 1447 1429 934 
Q 1834 422 2522 422 
Q 3209 422 3611 934 
Q 4013 1447 4013 2328 
Q 4013 3213 3611 3725 
Q 3209 4238 2522 4238 
z
M 2522 4750 
Q 3503 4750 4090 4092 
Q 4678 3434 4678 2328 
Q 4678 1225 4090 567 
Q 3503 -91 2522 -91 
Q 1538 -91 948 565 
Q 359 1222 359 2328 
Q 359 3434 948 4092 
Q 1538 4750 2522 4750 
z
" transform="scale(0.015625)"/>
      </defs>
      <use xlink:href="#DejaVuSans-4f"/>
      <use xlink:href="#DejaVuSans-72" x="78.710938"/>
      <use xlink:href="#DejaVuSans-61" x="119.824219"/>
      <use xlink:href="#DejaVuSans-64" x="181.103516"/>
      <use xlink:href="#DejaVuSans-65" x="244.580078"/>
      <use xlink:href="#DejaVuSans-61" x="306.103516"/>
     </g>
    </g>
   </g>
   <g id="text_24">
    <g clip-path="url(#p4b0c2480ef)">
     <!-- Fagaras -->
     <g transform="translate(289.622149 139.714385) scale(0.1 -0.1)">
      <defs>
       <path id="DejaVuSans-46" d="M 628 4666 
L 3309 4666 
L 3309 4134 
L 1259 4134 
L 1259 2759 
L 3109 2759 
L 3109 2228 
L 1259 2228 
L 1259 0 
L 628 0 
L 628 4666 
z
" transform="scale(0.015625)"/>
       <path id="DejaVuSans-67" d="M 2906 1791 
Q 2906 2416 2648 2759 
Q 2391 3103 1925 3103 
Q 1463 3103 1205 2759 
Q 947 2416 947 1791 
Q 947 1169 1205 825 
Q 1463 481 1925 481 
Q 2391 481 2648 825 
Q 2906 1169 2906 1791 
z
M 3481 434 
Q 3481 -459 3084 -895 
Q 2688 -1331 1869 -1331 
Q 1566 -1331 1297 -1286 
Q 1028 -1241 775 -1147 
L 775 -588 
Q 1028 -725 1275 -790 
Q 1522 -856 1778 -856 
Q 2344 -856 2625 -561 
Q 2906 -266 2906 331 
L 2906 616 
Q 2728 306 2450 153 
Q 2172 0 1784 0 
Q 1141 0 747 490 
Q 353 981 353 1791 
Q 353 2603 747 3093 
Q 1141 3584 1784 3584 
Q 2172 3584 2450 3431 
Q 2728 3278 2906 2969 
L 2906 3500 
L 3481 3500 
L 3481 434 
z
" transform="scale(0.015625)"/>
      </defs>
      <use xlink:href="#DejaVuSans-46"/>
      <use xlink:href="#DejaVuSans-61" x="48.394531"/>
      <use xlink:href="#DejaVuSans-67" x="109.673828"/>
      <use xlink:href="#DejaVuSans-61" x="173.150391"/>
      <use xlink:href="#DejaVuSans-72" x="234.429688"/>
      <use xlink:href="#DejaVuSans-61" x="275.542969"/>
      <use xlink:href="#DejaVuSans-73" x="336.822266"/>
     </g>
    </g>
   </g>
   <g id="text_25">
    <g clip-path="url(#p4b0c2480ef)">
     <!-- RimnicuVilcea -->
     <g transform="translate(325.566317 357.834463) scale(0.1 -0.1)">
      <defs>
       <path id="DejaVuSans-52" d="M 2841 2188 
Q 3044 2119 3236 1894 
Q 3428 1669 3622 1275 
L 4263 0 
L 3584 0 
L 2988 1197 
Q 2756 1666 2539 1819 
Q 2322 1972 1947 1972 
L 1259 1972 
L 1259 0 
L 628 0 
L 628 4666 
L 2053 4666 
Q 2853 4666 3247 4331 
Q 3641 3997 3641 3322 
Q 3641 2881 3436 2590 
Q 3231 2300 2841 2188 
z
M 1259 4147 
L 1259 2491 
L 2053 2491 
Q 2509 2491 2742 2702 
Q 2975 2913 2975 3322 
Q 2975 3731 2742 3939 
Q 2509 4147 2053 4147 
L 1259 4147 
z
" transform="scale(0.015625)"/>
       <path id="DejaVuSans-63" d="M 3122 3366 
L 3122 2828 
Q 2878 2963 2633 3030 
Q 2388 3097 2138 3097 
Q 1578 3097 1268 2742 
Q 959 2388 959 1747 
Q 959 1106 1268 751 
Q 1578 397 2138 397 
Q 2388 397 2633 464 
Q 2878 531 3122 666 
L 3122 134 
Q 2881 22 2623 -34 
Q 2366 -91 2075 -91 
Q 1284 -91 818 406 
Q 353 903 353 1747 
Q 353 2603 823 3093 
Q 1294 3584 2113 3584 
Q 2378 3584 2631 3529 
Q 2884 3475 3122 3366 
z
" transform="scale(0.015625)"/>
       <path id="DejaVuSans-56" d="M 1831 0 
L 50 4666 
L 709 4666 
L 2188 738 
L 3669 4666 
L 4325 4666 
L 2547 0 
L 1831 0 
z
" transform="scale(0.015625)"/>
       <path id="DejaVuSans-6c" d="M 603 4863 
L 1178 4863 
L 1178 0 
L 603 0 
L 603 4863 
z
" transform="scale(0.015625)"/>
      </defs>
      <use xlink:href="#DejaVuSans-52"/>
      <use xlink:href="#DejaVuSans-69" x="69.482422"/>
      <use xlink:href="#DejaVuSans-6d" x="97.265625"/>
      <use xlink:href="#DejaVuSans-6e" x="194.677734"/>
      <use xlink:href="#DejaVuSans-69" x="258.056641"/>
      <use xlink:href="#DejaVuSans-63" x="285.839844"/>
      <use xlink:href="#DejaVuSans-75" x="340.820312"/>
      <use xlink:href="#DejaVuSans-56" x="404.199219"/>
      <use xlink:href="#DejaVuSans-69" x="470.357422"/>
      <use xlink:href="#DejaVuSans-6c" x="498.140625"/>
      <use xlink:href="#DejaVuSans-63" x="525.923828"/>
      <use xlink:href="#DejaVuSans-65" x="580.904297"/>
      <use xlink:href="#DejaVuSans-61" x="642.427734"/>
     </g>
    </g>
   </g>
   <g id="text_26">
    <g clip-path="url(#p4b0c2480ef)">
     <!-- Lugoj -->
     <g transform="translate(661.70554 586.243305) scale(0.1 -0.1)">
      <defs>
       <path id="DejaVuSans-4c" d="M 628 4666 
L 1259 4666 
L 1259 531 
L 3531 531 
L 3531 0 
L 628 0 
L 628 4666 
z
" transform="scale(0.015625)"/>
       <path id="DejaVuSans-6a" d="M 603 3500 
L 1178 3500 
L 1178 -63 
Q 1178 -731 923 -1031 
Q 669 -1331 103 -1331 
L -116 -1331 
L -116 -844 
L 38 -844 
Q 366 -844 484 -692 
Q 603 -541 603 -63 
L 603 3500 
z
M 603 4863 
L 1178 4863 
L 1178 4134 
L 603 4134 
L 603 4863 
z
" transform="scale(0.015625)"/>
      </defs>
      <use xlink:href="#DejaVuSans-4c"/>
      <use xlink:href="#DejaVuSans-75" x="53.962891"/>
      <use xlink:href="#DejaVuSans-67" x="117.341797"/>
      <use xlink:href="#DejaVuSans-6f" x="180.818359"/>
      <use xlink:href="#DejaVuSans-6a" x="242"/>
     </g>
    </g>
   </g>
   <g id="text_27">
    <g clip-path="url(#p4b0c2480ef)">
     <!-- Bucharest -->
     <g transform="translate(122.568819 434.496744) scale(0.1 -0.1)">
      <defs>
       <path id="DejaVuSans-42" d="M 1259 2228 
L 1259 519 
L 2272 519 
Q 2781 519 3026 730 
Q 3272 941 3272 1375 
Q 3272 1813 3026 2020 
Q 2781 2228 2272 2228 
L 1259 2228 
z
M 1259 4147 
L 1259 2741 
L 2194 2741 
Q 2656 2741 2882 2914 
Q 3109 3088 3109 3444 
Q 3109 3797 2882 3972 
Q 2656 4147 2194 4147 
L 1259 4147 
z
M 628 4666 
L 2241 4666 
Q 2963 4666 3353 4366 
Q 3744 4066 3744 3513 
Q 3744 3084 3544 2831 
Q 3344 2578 2956 2516 
Q 3422 2416 3680 2098 
Q 3938 1781 3938 1306 
Q 3938 681 3513 340 
Q 3088 0 2303 0 
L 628 0 
L 628 4666 
z
" transform="scale(0.015625)"/>
       <path id="DejaVuSans-68" d="M 3513 2113 
L 3513 0 
L 2938 0 
L 2938 2094 
Q 2938 2591 2744 2837 
Q 2550 3084 2163 3084 
Q 1697 3084 1428 2787 
Q 1159 2491 1159 1978 
L 1159 0 
L 581 0 
L 581 4863 
L 1159 4863 
L 1159 2956 
Q 1366 3272 1645 3428 
Q 1925 3584 2291 3584 
Q 2894 3584 3203 3211 
Q 3513 2838 3513 2113 
z
" transform="scale(0.015625)"/>
       <path id="DejaVuSans-74" d="M 1172 4494 
L 1172 3500 
L 2356 3500 
L 2356 3053 
L 1172 3053 
L 1172 1153 
Q 1172 725 1289 603 
Q 1406 481 1766 481 
L 2356 481 
L 2356 0 
L 1766 0 
Q 1100 0 847 248 
Q 594 497 594 1153 
L 594 3053 
L 172 3053 
L 172 3500 
L 594 3500 
L 594 4494 
L 1172 4494 
z
" transform="scale(0.015625)"/>
      </defs>
      <use xlink:href="#DejaVuSans-42"/>
      <use xlink:href="#DejaVuSans-75" x="68.603516"/>
      <use xlink:href="#DejaVuSans-63" x="131.982422"/>
      <use xlink:href="#DejaVuSans-68" x="186.962891"/>
      <use xlink:href="#DejaVuSans-61" x="250.341797"/>
      <use xlink:href="#DejaVuSans-72" x="311.621094"/>
      <use xlink:href="#DejaVuSans-65" x="350.484375"/>
      <use xlink:href="#DejaVuSans-73" x="412.007812"/>
      <use xlink:href="#DejaVuSans-74" x="464.107422"/>
     </g>
    </g>
   </g>
   <g id="text_28">
    <g clip-path="url(#p4b0c2480ef)">
     <!-- Pitesti -->
     <g transform="translate(255.355383 454.317232) scale(0.1 -0.1)">
      <defs>
       <path id="DejaVuSans-50" d="M 1259 4147 
L 1259 2394 
L 2053 2394 
Q 2494 2394 2734 2622 
Q 2975 2850 2975 3272 
Q 2975 3691 2734 3919 
Q 2494 4147 2053 4147 
L 1259 4147 
z
M 628 4666 
L 2053 4666 
Q 2838 4666 3239 4311 
Q 3641 3956 3641 3272 
Q 3641 2581 3239 2228 
Q 2838 1875 2053 1875 
L 1259 1875 
L 1259 0 
L 628 0 
L 628 4666 
z
" transform="scale(0.015625)"/>
      </defs>
      <use xlink:href="#DejaVuSans-50"/>
      <use xlink:href="#DejaVuSans-69" x="58.052734"/>
      <use xlink:href="#DejaVuSans-74" x="85.835938"/>
      <use xlink:href="#DejaVuSans-65" x="125.044922"/>
      <use xlink:href="#DejaVuSans-73" x="186.568359"/>
      <use xlink:href="#DejaVuSans-74" x="238.667969"/>
      <use xlink:href="#DejaVuSans-69" x="277.876953"/>
     </g>
    </g>
   </g>
   <g id="text_29">
    <g clip-path="url(#p4b0c2480ef)">
     <!-- Craiova -->
     <g transform="translate(372.991369 598.273079) scale(0.1 -0.1)">
      <defs>
       <path id="DejaVuSans-43" d="M 4122 4306 
L 4122 3641 
Q 3803 3938 3442 4084 
Q 3081 4231 2675 4231 
Q 1875 4231 1450 3742 
Q 1025 3253 1025 2328 
Q 1025 1406 1450 917 
Q 1875 428 2675 428 
Q 3081 428 3442 575 
Q 3803 722 4122 1019 
L 4122 359 
Q 3791 134 3420 21 
Q 3050 -91 2638 -91 
Q 1578 -91 968 557 
Q 359 1206 359 2328 
Q 359 3453 968 4101 
Q 1578 4750 2638 4750 
Q 3056 4750 3426 4639 
Q 3797 4528 4122 4306 
z
" transform="scale(0.015625)"/>
       <path id="DejaVuSans-76" d="M 191 3500 
L 800 3500 
L 1894 563 
L 2988 3500 
L 3597 3500 
L 2284 0 
L 1503 0 
L 191 3500 
z
" transform="scale(0.015625)"/>
      </defs>
      <use xlink:href="#DejaVuSans-43"/>
      <use xlink:href="#DejaVuSans-72" x="69.824219"/>
      <use xlink:href="#DejaVuSans-61" x="110.9375"/>
      <use xlink:href="#DejaVuSans-69" x="172.216797"/>
      <use xlink:href="#DejaVuSans-6f" x="200"/>
      <use xlink:href="#DejaVuSans-76" x="261.181641"/>
      <use xlink:href="#DejaVuSans-61" x="320.361328"/>
     </g>
    </g>
   </g>
   <g id="text_30">
    <g clip-path="url(#p4b0c2480ef)">
     <!-- Mehadja -->
     <g transform="translate(593.721765 666.168639) scale(0.1 -0.1)">
      <defs>
       <path id="DejaVuSans-4d" d="M 628 4666 
L 1569 4666 
L 2759 1491 
L 3956 4666 
L 4897 4666 
L 4897 0 
L 4281 0 
L 4281 4097 
L 3078 897 
L 2444 897 
L 1241 4097 
L 1241 0 
L 628 0 
L 628 4666 
z
" transform="scale(0.015625)"/>
      </defs>
      <use xlink:href="#DejaVuSans-4d"/>
      <use xlink:href="#DejaVuSans-65" x="86.279297"/>
      <use xlink:href="#DejaVuSans-68" x="147.802734"/>
      <use xlink:href="#DejaVuSans-61" x="211.181641"/>
      <use xlink:href="#DejaVuSans-64" x="272.460938"/>
      <use xlink:href="#DejaVuSans-6a" x="335.9375"/>
      <use xlink:href="#DejaVuSans-61" x="363.720703"/>
     </g>
    </g>
   </g>
   <g id="text_31">
    <g clip-path="url(#p4b0c2480ef)">
     <!-- Dobreta -->
     <g transform="translate(505.865053 693.156069) scale(0.1 -0.1)">
      <defs>
       <path id="DejaVuSans-44" d="M 1259 4147 
L 1259 519 
L 2022 519 
Q 2988 519 3436 956 
Q 3884 1394 3884 2338 
Q 3884 3275 3436 3711 
Q 2988 4147 2022 4147 
L 1259 4147 
z
M 628 4666 
L 1925 4666 
Q 3281 4666 3915 4102 
Q 4550 3538 4550 2338 
Q 4550 1131 3912 565 
Q 3275 0 1925 0 
L 628 0 
L 628 4666 
z
" transform="scale(0.015625)"/>
      </defs>
      <use xlink:href="#DejaVuSans-44"/>
      <use xlink:href="#DejaVuSans-6f" x="77.001953"/>
      <use xlink:href="#DejaVuSans-62" x="138.183594"/>
      <use xlink:href="#DejaVuSans-72" x="201.660156"/>
      <use xlink:href="#DejaVuSans-65" x="240.523438"/>
      <use xlink:href="#DejaVuSans-74" x="302.046875"/>
      <use xlink:href="#DejaVuSans-61" x="341.255859"/>
     </g>
    </g>
   </g>
   <g id="text_32">
    <g clip-path="url(#p4b0c2480ef)">
     <!-- Urziceni -->
     <g transform="translate(45.491587 351.776787) scale(0.1 -0.1)">
      <defs>
       <path id="DejaVuSans-55" d="M 556 4666 
L 1191 4666 
L 1191 1831 
Q 1191 1081 1462 751 
Q 1734 422 2344 422 
Q 2950 422 3222 751 
Q 3494 1081 3494 1831 
L 3494 4666 
L 4128 4666 
L 4128 1753 
Q 4128 841 3676 375 
Q 3225 -91 2344 -91 
Q 1459 -91 1007 375 
Q 556 841 556 1753 
L 556 4666 
z
" transform="scale(0.015625)"/>
       <path id="DejaVuSans-7a" d="M 353 3500 
L 3084 3500 
L 3084 2975 
L 922 459 
L 3084 459 
L 3084 0 
L 275 0 
L 275 525 
L 2438 3041 
L 353 3041 
L 353 3500 
z
" transform="scale(0.015625)"/>
      </defs>
      <use xlink:href="#DejaVuSans-55"/>
      <use xlink:href="#DejaVuSans-72" x="73.193359"/>
      <use xlink:href="#DejaVuSans-7a" x="114.306641"/>
      <use xlink:href="#DejaVuSans-69" x="166.796875"/>
      <use xlink:href="#DejaVuSans-63" x="194.580078"/>
      <use xlink:href="#DejaVuSans-65" x="249.560547"/>
      <use xlink:href="#DejaVuSans-6e" x="311.083984"/>
      <use xlink:href="#DejaVuSans-69" x="374.462891"/>
     </g>
    </g>
   </g>
   <g id="text_33">
    <g clip-path="url(#p4b0c2480ef)">
     <!-- Giurgiu -->
     <g transform="translate(60.298267 549.757031) scale(0.1 -0.1)">
      <defs>
       <path id="DejaVuSans-47" d="M 3809 666 
L 3809 1919 
L 2778 1919 
L 2778 2438 
L 4434 2438 
L 4434 434 
Q 4069 175 3628 42 
Q 3188 -91 2688 -91 
Q 1594 -91 976 548 
Q 359 1188 359 2328 
Q 359 3472 976 4111 
Q 1594 4750 2688 4750 
Q 3144 4750 3555 4637 
Q 3966 4525 4313 4306 
L 4313 3634 
Q 3963 3931 3569 4081 
Q 3175 4231 2741 4231 
Q 1884 4231 1454 3753 
Q 1025 3275 1025 2328 
Q 1025 1384 1454 906 
Q 1884 428 2741 428 
Q 3075 428 3337 486 
Q 3600 544 3809 666 
z
" transform="scale(0.015625)"/>
      </defs>
      <use xlink:href="#DejaVuSans-47"/>
      <use xlink:href="#DejaVuSans-69" x="77.490234"/>
      <use xlink:href="#DejaVuSans-75" x="105.273438"/>
      <use xlink:href="#DejaVuSans-72" x="168.652344"/>
      <use xlink:href="#DejaVuSans-67" x="208.015625"/>
      <use xlink:href="#DejaVuSans-69" x="271.492188"/>
      <use xlink:href="#DejaVuSans-75" x="299.275391"/>
     </g>
    </g>
   </g>
  </g>
 </g>
 <defs>
  <clipPath id="p4b0c2480ef">
   <rect x="0" y="0" width="756" height="756"/>
  </clipPath>
 </defs>
</svg>
